<mxfile host="app.diagrams.net" modified="2024-04-02T07:23:48.170Z" agent="Mozilla/5.0 (Windows NT 10.0; Win64; x64) AppleWebKit/537.36 (KHTML, like Gecko) Chrome/123.0.0.0 Safari/537.36" etag="0eKo7DW-iI_2dJKuauKl" version="24.2.1" type="device">
  <diagram name="Страница — 1" id="EP8EBzwxJLloXq10jvEQ">
    <mxGraphModel dx="1215" dy="766" grid="1" gridSize="10" guides="1" tooltips="1" connect="1" arrows="1" fold="1" page="1" pageScale="1" pageWidth="827" pageHeight="1169" math="0" shadow="0">
      <root>
        <mxCell id="0" />
        <mxCell id="1" parent="0" />
        <mxCell id="LA66xMlk8g-5gAfA85Ul-1" value="Event" style="swimlane;whiteSpace=wrap;html=1;" parent="1" vertex="1">
          <mxGeometry x="314" y="385" width="200" height="200" as="geometry">
            <mxRectangle x="30" y="70" width="70" height="30" as="alternateBounds" />
          </mxGeometry>
        </mxCell>
        <mxCell id="LA66xMlk8g-5gAfA85Ul-3" value="&lt;span style=&quot;font-size: 24px;&quot;&gt;name&lt;/span&gt;" style="text;html=1;align=center;verticalAlign=middle;resizable=0;points=[];autosize=1;strokeColor=none;fillColor=none;" parent="LA66xMlk8g-5gAfA85Ul-1" vertex="1">
          <mxGeometry x="-10" y="73" width="80" height="40" as="geometry" />
        </mxCell>
        <mxCell id="LA66xMlk8g-5gAfA85Ul-4" value="&lt;font style=&quot;font-size: 24px;&quot;&gt;date time&lt;/font&gt;" style="text;html=1;align=center;verticalAlign=middle;resizable=0;points=[];autosize=1;strokeColor=none;fillColor=none;" parent="LA66xMlk8g-5gAfA85Ul-1" vertex="1">
          <mxGeometry x="-10" y="113" width="120" height="40" as="geometry" />
        </mxCell>
        <mxCell id="LA66xMlk8g-5gAfA85Ul-2" value="&lt;font style=&quot;font-size: 24px;&quot;&gt;event id&lt;/font&gt;" style="text;html=1;align=center;verticalAlign=middle;resizable=0;points=[];autosize=1;strokeColor=none;fillColor=none;" parent="LA66xMlk8g-5gAfA85Ul-1" vertex="1">
          <mxGeometry x="-10" y="33" width="110" height="40" as="geometry" />
        </mxCell>
        <mxCell id="LA66xMlk8g-5gAfA85Ul-5" value="&lt;span style=&quot;font-size: 24px;&quot;&gt;description&lt;/span&gt;" style="text;html=1;align=center;verticalAlign=middle;resizable=0;points=[];autosize=1;strokeColor=none;fillColor=none;" parent="LA66xMlk8g-5gAfA85Ul-1" vertex="1">
          <mxGeometry x="-10" y="153" width="140" height="40" as="geometry" />
        </mxCell>
        <mxCell id="TpDpnMR3nzu4WU6hY8zd-6" style="edgeStyle=orthogonalEdgeStyle;rounded=0;orthogonalLoop=1;jettySize=auto;html=1;entryX=0.5;entryY=0;entryDx=0;entryDy=0;" edge="1" parent="1" source="TpDpnMR3nzu4WU6hY8zd-1" target="TpDpnMR3nzu4WU6hY8zd-5">
          <mxGeometry relative="1" as="geometry" />
        </mxCell>
        <mxCell id="TpDpnMR3nzu4WU6hY8zd-1" value="AddEvent&lt;div&gt;&lt;br&gt;&lt;/div&gt;" style="rounded=0;whiteSpace=wrap;html=1;" vertex="1" parent="1">
          <mxGeometry x="279" y="160" width="120" height="60" as="geometry" />
        </mxCell>
        <mxCell id="TpDpnMR3nzu4WU6hY8zd-9" style="edgeStyle=orthogonalEdgeStyle;rounded=0;orthogonalLoop=1;jettySize=auto;html=1;entryX=0.5;entryY=0;entryDx=0;entryDy=0;" edge="1" parent="1" source="TpDpnMR3nzu4WU6hY8zd-2" target="TpDpnMR3nzu4WU6hY8zd-7">
          <mxGeometry relative="1" as="geometry" />
        </mxCell>
        <mxCell id="TpDpnMR3nzu4WU6hY8zd-2" value="EditEvent&lt;div&gt;&lt;br&gt;&lt;/div&gt;" style="rounded=0;whiteSpace=wrap;html=1;" vertex="1" parent="1">
          <mxGeometry x="439" y="160" width="120" height="60" as="geometry" />
        </mxCell>
        <mxCell id="TpDpnMR3nzu4WU6hY8zd-10" style="edgeStyle=orthogonalEdgeStyle;rounded=0;orthogonalLoop=1;jettySize=auto;html=1;entryX=0.5;entryY=0;entryDx=0;entryDy=0;" edge="1" parent="1" source="TpDpnMR3nzu4WU6hY8zd-3" target="TpDpnMR3nzu4WU6hY8zd-8">
          <mxGeometry relative="1" as="geometry" />
        </mxCell>
        <mxCell id="TpDpnMR3nzu4WU6hY8zd-3" value="DeleteEvent&lt;div&gt;&lt;br&gt;&lt;/div&gt;" style="rounded=0;whiteSpace=wrap;html=1;" vertex="1" parent="1">
          <mxGeometry x="589" y="160" width="120" height="60" as="geometry" />
        </mxCell>
        <mxCell id="TpDpnMR3nzu4WU6hY8zd-12" style="edgeStyle=orthogonalEdgeStyle;rounded=0;orthogonalLoop=1;jettySize=auto;html=1;entryX=0.5;entryY=0;entryDx=0;entryDy=0;" edge="1" parent="1" source="TpDpnMR3nzu4WU6hY8zd-4" target="TpDpnMR3nzu4WU6hY8zd-11">
          <mxGeometry relative="1" as="geometry" />
        </mxCell>
        <mxCell id="TpDpnMR3nzu4WU6hY8zd-4" value="ShowEvents" style="rounded=0;whiteSpace=wrap;html=1;" vertex="1" parent="1">
          <mxGeometry x="119" y="160" width="120" height="60" as="geometry" />
        </mxCell>
        <mxCell id="TpDpnMR3nzu4WU6hY8zd-5" value="записує введені данні у хмл файл" style="rounded=0;whiteSpace=wrap;html=1;" vertex="1" parent="1">
          <mxGeometry x="279" y="260" width="120" height="60" as="geometry" />
        </mxCell>
        <mxCell id="TpDpnMR3nzu4WU6hY8zd-7" value="Змінює данні евента за введеним ID" style="rounded=0;whiteSpace=wrap;html=1;" vertex="1" parent="1">
          <mxGeometry x="439" y="260" width="120" height="60" as="geometry" />
        </mxCell>
        <mxCell id="TpDpnMR3nzu4WU6hY8zd-8" value="Видаляє евент за введеним ID" style="rounded=0;whiteSpace=wrap;html=1;" vertex="1" parent="1">
          <mxGeometry x="589" y="260" width="120" height="60" as="geometry" />
        </mxCell>
        <mxCell id="TpDpnMR3nzu4WU6hY8zd-11" value="Виводить данні усіх евентів&lt;div&gt;&lt;br&gt;&lt;/div&gt;" style="rounded=0;whiteSpace=wrap;html=1;" vertex="1" parent="1">
          <mxGeometry x="119" y="260" width="120" height="60" as="geometry" />
        </mxCell>
        <mxCell id="TpDpnMR3nzu4WU6hY8zd-13" value="EventOrginizer" style="ellipse;whiteSpace=wrap;html=1;" vertex="1" parent="1">
          <mxGeometry x="322" y="30" width="167" height="100" as="geometry" />
        </mxCell>
      </root>
    </mxGraphModel>
  </diagram>
</mxfile>
